# xmcd
#
# Track frame offsets:
#	150
#	11273
#	22564
#	33789
#	45014
#	55298
#	66348
#	79659
#	89722
#	99191
#	112028
#	124654
#	135740
#	148148
#	158242
#	170768
#	180461
#	194387
#	205077
#	215814
#	225052
#	232278
#	244506
#	256232
#	268405
#	280684
#	292945
#	303909
#	314944
#	324950
#	334157
#
# Disc length: 4597 seconds
#
# Revision: 1
# Processed by: cddbd v1.5.2PL0 Copyright (c) Steve Scherf et al.
# Submitted via: audiograbber 1.83.01
#
DISCID=b311f31f
DTITLE=George Jones and Gene Pitney - For The First Time!
DYEAR=1994
DGENRE=Country
TTITLE0=Why Baby Why
TTITLE1=Someday You'll Want Me To Want You
TTITLE2=For Me This Is Happy
TTITLE3=That's All It Took
TTITLE4=I'm Gonna Listen To Me
TTITLE5=I'm A Fool To Care
TTITLE6=She Thinks I Still Care
TTITLE7=Big Job
TTITLE8=I'm Up To My Neck In I.O.U.'s
TTITLE9=Sweeter Than Flowers
TTITLE10=Wreck On The Highway
TTITLE11=The More I Saw Of Her
TTITLE12=A Thousand Arms (Five Hundred Hearts)
TTITLE13=I've Got Five Dollars And It's Saturday Night
TTITLE14=Louisiana Man
TTITLE15=Drinking From The Well Of Your Love
TTITLE16=Life To Go
TTITLE17=One Has My Name
TTITLE18=Mockin' Bird Hill
TTITLE19=I'd Like To See Me Stop You
TTITLE20=I Can't Stop Loving You
TTITLE21=Your Old Standby
TTITLE22=Won't Take Long
TTITLE23=I've Got A New Heartache
TTITLE24=My Shoes Keep Walking Back To
TTITLE25=I Really Don't Want To Know
TTITLE26=As Long As I Live
TTITLE27=Born To Lose
TTITLE28=Don't Rob Another Man's Castle
TTITLE29=Love Bug
TTITLE30=Y' All Come
EXTD=
EXTT0=
EXTT1=
EXTT2=
EXTT3=
EXTT4=
EXTT5=
EXTT6=
EXTT7=
EXTT8=
EXTT9=
EXTT10=
EXTT11=
EXTT12=
EXTT13=
EXTT14=
EXTT15=
EXTT16=
EXTT17=
EXTT18=
EXTT19=
EXTT20=
EXTT21=
EXTT22=
EXTT23=
EXTT24=
EXTT25=
EXTT26=
EXTT27=
EXTT28=
EXTT29=
EXTT30=
PLAYORDER=
